<mxfile host="app.diagrams.net" agent="Mozilla/5.0 (X11; Linux x86_64) AppleWebKit/537.36 (KHTML, like Gecko) Chrome/118.0.5615.213 Safari/537.36" version="26.0.14">
  <diagram name="Page-1" id="3I6mRa5P5nZsIQNZ7VRq">
    <mxGraphModel dx="1118" dy="561" grid="1" gridSize="10" guides="1" tooltips="1" connect="1" arrows="1" fold="1" page="1" pageScale="1" pageWidth="4681" pageHeight="3300" math="0" shadow="0">
      <root>
        <mxCell id="0" />
        <mxCell id="1" parent="0" />
        <mxCell id="i-SSKv4laA4iEFBlzxF1-1" value="Inquiry by a citizen" style="swimlane;fontStyle=0;childLayout=stackLayout;horizontal=1;startSize=26;strokeColor=#DAEEF3;strokeWidth=3;fillColor=none;horizontalStack=0;resizeParent=1;resizeParentMax=0;resizeLast=0;collapsible=1;marginBottom=0;whiteSpace=wrap;html=1;" parent="1" vertex="1">
          <mxGeometry x="30" y="260" width="150" height="52" as="geometry" />
        </mxCell>
        <mxCell id="i-SSKv4laA4iEFBlzxF1-2" value="Record" style="text;strokeColor=#DAEEF3;strokeWidth=3;fillColor=none;align=center;verticalAlign=top;spacingLeft=4;spacingRight=4;overflow=hidden;rotatable=0;points=[[0,0.5],[1,0.5]];portConstraint=eastwest;whiteSpace=wrap;html=1;" parent="i-SSKv4laA4iEFBlzxF1-1" vertex="1">
          <mxGeometry y="26" width="150" height="26" as="geometry" />
        </mxCell>
        <mxCell id="i-SSKv4laA4iEFBlzxF1-3" value="" style="endArrow=classic;html=1;rounded=0;entryX=0;entryY=0;entryDx=0;entryDy=0;entryPerimeter=0;" parent="1" target="i-SSKv4laA4iEFBlzxF1-6" edge="1">
          <mxGeometry relative="1" as="geometry">
            <mxPoint x="200" y="285.5" as="sourcePoint" />
            <mxPoint x="360" y="286" as="targetPoint" />
          </mxGeometry>
        </mxCell>
        <mxCell id="i-SSKv4laA4iEFBlzxF1-4" value="precedes or preceded" style="edgeLabel;resizable=0;html=1;;align=center;verticalAlign=middle;" parent="i-SSKv4laA4iEFBlzxF1-3" connectable="0" vertex="1">
          <mxGeometry relative="1" as="geometry" />
        </mxCell>
        <mxCell id="i-SSKv4laA4iEFBlzxF1-5" value="Reply by official body" style="swimlane;fontStyle=0;childLayout=stackLayout;horizontal=1;startSize=26;strokeColor=#DAEEF3;strokeWidth=3;fillColor=none;horizontalStack=0;resizeParent=1;resizeParentMax=0;resizeLast=0;collapsible=1;marginBottom=0;whiteSpace=wrap;html=1;" parent="1" vertex="1">
          <mxGeometry x="380" y="260" width="150" height="52" as="geometry" />
        </mxCell>
        <mxCell id="i-SSKv4laA4iEFBlzxF1-6" value="Record" style="text;strokeColor=#DAEEF3;strokeWidth=3;fillColor=none;align=center;verticalAlign=top;spacingLeft=4;spacingRight=4;overflow=hidden;rotatable=0;points=[[0,0.5],[1,0.5]];portConstraint=eastwest;whiteSpace=wrap;html=1;" parent="i-SSKv4laA4iEFBlzxF1-5" vertex="1">
          <mxGeometry y="26" width="150" height="26" as="geometry" />
        </mxCell>
        <mxCell id="i-SSKv4laA4iEFBlzxF1-7" value="Response to official body&#39;s reply by citizen" style="swimlane;fontStyle=0;childLayout=stackLayout;horizontal=1;startSize=26;strokeColor=#DAEEF3;strokeWidth=3;fillColor=none;horizontalStack=0;resizeParent=1;resizeParentMax=0;resizeLast=0;collapsible=1;marginBottom=0;whiteSpace=wrap;html=1;" parent="1" vertex="1">
          <mxGeometry x="700" y="260" width="260" height="52" as="geometry" />
        </mxCell>
        <mxCell id="i-SSKv4laA4iEFBlzxF1-8" value="Record" style="text;strokeColor=#DAEEF3;strokeWidth=3;fillColor=none;align=center;verticalAlign=top;spacingLeft=4;spacingRight=4;overflow=hidden;rotatable=0;points=[[0,0.5],[1,0.5]];portConstraint=eastwest;whiteSpace=wrap;html=1;" parent="i-SSKv4laA4iEFBlzxF1-7" vertex="1">
          <mxGeometry y="26" width="260" height="26" as="geometry" />
        </mxCell>
        <mxCell id="i-SSKv4laA4iEFBlzxF1-9" value="" style="endArrow=classic;html=1;rounded=0;entryX=0.007;entryY=0.038;entryDx=0;entryDy=0;entryPerimeter=0;" parent="1" target="i-SSKv4laA4iEFBlzxF1-8" edge="1">
          <mxGeometry relative="1" as="geometry">
            <mxPoint x="530" y="285.5" as="sourcePoint" />
            <mxPoint x="710" y="286" as="targetPoint" />
          </mxGeometry>
        </mxCell>
        <mxCell id="i-SSKv4laA4iEFBlzxF1-10" value="precedes or preceded" style="edgeLabel;resizable=0;html=1;;align=center;verticalAlign=middle;" parent="i-SSKv4laA4iEFBlzxF1-9" connectable="0" vertex="1">
          <mxGeometry relative="1" as="geometry" />
        </mxCell>
        <mxCell id="i-SSKv4laA4iEFBlzxF1-11" value="Reply by official body to citizen&#39;s response" style="swimlane;fontStyle=0;childLayout=stackLayout;horizontal=1;startSize=26;strokeColor=#DAEEF3;strokeWidth=3;fillColor=none;horizontalStack=0;resizeParent=1;resizeParentMax=0;resizeLast=0;collapsible=1;marginBottom=0;whiteSpace=wrap;html=1;" parent="1" vertex="1">
          <mxGeometry x="1140" y="260" width="250" height="52" as="geometry" />
        </mxCell>
        <mxCell id="i-SSKv4laA4iEFBlzxF1-12" value="Record" style="text;strokeColor=#DAEEF3;strokeWidth=3;fillColor=none;align=center;verticalAlign=top;spacingLeft=4;spacingRight=4;overflow=hidden;rotatable=0;points=[[0,0.5],[1,0.5]];portConstraint=eastwest;whiteSpace=wrap;html=1;" parent="i-SSKv4laA4iEFBlzxF1-11" vertex="1">
          <mxGeometry y="26" width="250" height="26" as="geometry" />
        </mxCell>
        <mxCell id="i-SSKv4laA4iEFBlzxF1-13" value="" style="endArrow=classic;html=1;rounded=0;entryX=0.004;entryY=0.077;entryDx=0;entryDy=0;entryPerimeter=0;" parent="1" target="i-SSKv4laA4iEFBlzxF1-12" edge="1">
          <mxGeometry relative="1" as="geometry">
            <mxPoint x="960" y="286" as="sourcePoint" />
            <mxPoint x="1132" y="287.5" as="targetPoint" />
          </mxGeometry>
        </mxCell>
        <mxCell id="i-SSKv4laA4iEFBlzxF1-14" value="precedes or preceded" style="edgeLabel;resizable=0;html=1;;align=center;verticalAlign=middle;" parent="i-SSKv4laA4iEFBlzxF1-13" connectable="0" vertex="1">
          <mxGeometry relative="1" as="geometry" />
        </mxCell>
        <mxCell id="G7a5rWq48IyiJGrq4Oza-1" value="" style="endArrow=classic;html=1;rounded=0;curved=1;exitX=0.587;exitY=0.019;exitDx=0;exitDy=0;exitPerimeter=0;entryX=0.5;entryY=0;entryDx=0;entryDy=0;" parent="1" source="i-SSKv4laA4iEFBlzxF1-5" target="i-SSKv4laA4iEFBlzxF1-1" edge="1">
          <mxGeometry relative="1" as="geometry">
            <mxPoint x="460" y="220" as="sourcePoint" />
            <mxPoint x="170" y="230" as="targetPoint" />
            <Array as="points">
              <mxPoint x="310" y="120" />
            </Array>
          </mxGeometry>
        </mxCell>
        <mxCell id="G7a5rWq48IyiJGrq4Oza-2" value="is reply to" style="edgeLabel;resizable=0;html=1;;align=center;verticalAlign=middle;" parent="G7a5rWq48IyiJGrq4Oza-1" connectable="0" vertex="1">
          <mxGeometry relative="1" as="geometry">
            <mxPoint y="59" as="offset" />
          </mxGeometry>
        </mxCell>
        <mxCell id="G7a5rWq48IyiJGrq4Oza-3" value="" style="endArrow=classic;html=1;rounded=0;exitX=0.447;exitY=1.154;exitDx=0;exitDy=0;exitPerimeter=0;" parent="1" source="i-SSKv4laA4iEFBlzxF1-2" edge="1">
          <mxGeometry relative="1" as="geometry">
            <mxPoint x="90" y="370" as="sourcePoint" />
            <mxPoint x="97" y="400" as="targetPoint" />
          </mxGeometry>
        </mxCell>
        <mxCell id="G7a5rWq48IyiJGrq4Oza-4" value="has author" style="edgeLabel;resizable=0;html=1;;align=center;verticalAlign=middle;" parent="G7a5rWq48IyiJGrq4Oza-3" connectable="0" vertex="1">
          <mxGeometry relative="1" as="geometry" />
        </mxCell>
        <mxCell id="G7a5rWq48IyiJGrq4Oza-5" value="A citizen" style="swimlane;fontStyle=0;childLayout=stackLayout;horizontal=1;startSize=26;strokeColor=#E5DFEC;strokeWidth=3;fillColor=none;horizontalStack=0;resizeParent=1;resizeParentMax=0;resizeLast=0;collapsible=1;marginBottom=0;whiteSpace=wrap;html=1;" parent="1" vertex="1">
          <mxGeometry x="50" y="400" width="90" height="52" as="geometry" />
        </mxCell>
        <mxCell id="G7a5rWq48IyiJGrq4Oza-6" value="Person" style="text;strokeColor=#E5DFEC;strokeWidth=3;fillColor=none;align=center;verticalAlign=top;spacingLeft=4;spacingRight=4;overflow=hidden;rotatable=0;points=[[0,0.5],[1,0.5]];portConstraint=eastwest;whiteSpace=wrap;html=1;" parent="G7a5rWq48IyiJGrq4Oza-5" vertex="1">
          <mxGeometry y="26" width="90" height="26" as="geometry" />
        </mxCell>
        <mxCell id="G7a5rWq48IyiJGrq4Oza-9" value="An official body" style="swimlane;fontStyle=0;childLayout=stackLayout;horizontal=1;startSize=26;strokeColor=#C6D9F1;strokeWidth=3;fillColor=none;horizontalStack=0;resizeParent=1;resizeParentMax=0;resizeLast=0;collapsible=1;marginBottom=0;whiteSpace=wrap;html=1;" parent="1" vertex="1">
          <mxGeometry x="390" y="400" width="130" height="52" as="geometry" />
        </mxCell>
        <mxCell id="G7a5rWq48IyiJGrq4Oza-10" value="CorporateBody" style="text;strokeColor=#C6D9F1;strokeWidth=3;fillColor=none;align=center;verticalAlign=top;spacingLeft=4;spacingRight=4;overflow=hidden;rotatable=0;points=[[0,0.5],[1,0.5]];portConstraint=eastwest;whiteSpace=wrap;html=1;" parent="G7a5rWq48IyiJGrq4Oza-9" vertex="1">
          <mxGeometry y="26" width="130" height="26" as="geometry" />
        </mxCell>
        <mxCell id="G7a5rWq48IyiJGrq4Oza-11" value="" style="endArrow=classic;html=1;rounded=0;exitX=0.453;exitY=1.115;exitDx=0;exitDy=0;exitPerimeter=0;entryX=0.454;entryY=-0.019;entryDx=0;entryDy=0;entryPerimeter=0;" parent="1" source="i-SSKv4laA4iEFBlzxF1-6" target="G7a5rWq48IyiJGrq4Oza-9" edge="1">
          <mxGeometry relative="1" as="geometry">
            <mxPoint x="400" y="380" as="sourcePoint" />
            <mxPoint x="530" y="380" as="targetPoint" />
          </mxGeometry>
        </mxCell>
        <mxCell id="G7a5rWq48IyiJGrq4Oza-12" value="has author" style="edgeLabel;resizable=0;html=1;;align=center;verticalAlign=middle;" parent="G7a5rWq48IyiJGrq4Oza-11" connectable="0" vertex="1">
          <mxGeometry relative="1" as="geometry" />
        </mxCell>
        <mxCell id="G7a5rWq48IyiJGrq4Oza-14" value="" style="endArrow=classic;html=1;rounded=0;exitX=0.007;exitY=1.127;exitDx=0;exitDy=0;exitPerimeter=0;entryX=1;entryY=0.5;entryDx=0;entryDy=0;" parent="1" source="i-SSKv4laA4iEFBlzxF1-6" target="G7a5rWq48IyiJGrq4Oza-5" edge="1">
          <mxGeometry relative="1" as="geometry">
            <mxPoint x="190" y="383.5" as="sourcePoint" />
            <mxPoint x="390" y="468.5" as="targetPoint" />
          </mxGeometry>
        </mxCell>
        <mxCell id="G7a5rWq48IyiJGrq4Oza-15" value="has addressee" style="edgeLabel;resizable=0;html=1;;align=center;verticalAlign=middle;" parent="G7a5rWq48IyiJGrq4Oza-14" connectable="0" vertex="1">
          <mxGeometry relative="1" as="geometry">
            <mxPoint x="-50" y="19" as="offset" />
          </mxGeometry>
        </mxCell>
        <mxCell id="G7a5rWq48IyiJGrq4Oza-7" value="" style="endArrow=classic;html=1;rounded=0;exitX=0.96;exitY=1.115;exitDx=0;exitDy=0;exitPerimeter=0;jumpStyle=gap;jumpSize=20;entryX=-0.023;entryY=0.041;entryDx=0;entryDy=0;entryPerimeter=0;" parent="1" source="i-SSKv4laA4iEFBlzxF1-2" target="G7a5rWq48IyiJGrq4Oza-10" edge="1">
          <mxGeometry relative="1" as="geometry">
            <mxPoint x="220" y="380" as="sourcePoint" />
            <mxPoint x="370" y="390" as="targetPoint" />
          </mxGeometry>
        </mxCell>
        <mxCell id="G7a5rWq48IyiJGrq4Oza-8" value="has addressee" style="edgeLabel;resizable=0;html=1;;align=center;verticalAlign=middle;" parent="G7a5rWq48IyiJGrq4Oza-7" connectable="0" vertex="1">
          <mxGeometry relative="1" as="geometry">
            <mxPoint x="50" y="19" as="offset" />
          </mxGeometry>
        </mxCell>
        <mxCell id="G7a5rWq48IyiJGrq4Oza-17" value="" style="endArrow=classic;html=1;rounded=0;curved=1;exitX=0.587;exitY=0.019;exitDx=0;exitDy=0;exitPerimeter=0;entryX=0.5;entryY=0;entryDx=0;entryDy=0;" parent="1" edge="1">
          <mxGeometry relative="1" as="geometry">
            <mxPoint x="853" y="260" as="sourcePoint" />
            <mxPoint x="490" y="259" as="targetPoint" />
            <Array as="points">
              <mxPoint x="695" y="119" />
            </Array>
          </mxGeometry>
        </mxCell>
        <mxCell id="G7a5rWq48IyiJGrq4Oza-18" value="is reply to" style="edgeLabel;resizable=0;html=1;;align=center;verticalAlign=middle;" parent="G7a5rWq48IyiJGrq4Oza-17" connectable="0" vertex="1">
          <mxGeometry relative="1" as="geometry">
            <mxPoint y="59" as="offset" />
          </mxGeometry>
        </mxCell>
        <mxCell id="G7a5rWq48IyiJGrq4Oza-19" value="" style="endArrow=classic;html=1;rounded=0;curved=1;exitX=0.587;exitY=0.019;exitDx=0;exitDy=0;exitPerimeter=0;entryX=0.5;entryY=0;entryDx=0;entryDy=0;" parent="1" edge="1">
          <mxGeometry relative="1" as="geometry">
            <mxPoint x="1253" y="260" as="sourcePoint" />
            <mxPoint x="890" y="259" as="targetPoint" />
            <Array as="points">
              <mxPoint x="1095" y="119" />
            </Array>
          </mxGeometry>
        </mxCell>
        <mxCell id="G7a5rWq48IyiJGrq4Oza-20" value="is reply to" style="edgeLabel;resizable=0;html=1;;align=center;verticalAlign=middle;" parent="G7a5rWq48IyiJGrq4Oza-19" connectable="0" vertex="1">
          <mxGeometry relative="1" as="geometry">
            <mxPoint y="59" as="offset" />
          </mxGeometry>
        </mxCell>
        <mxCell id="G7a5rWq48IyiJGrq4Oza-21" value="" style="endArrow=classic;html=1;rounded=0;exitX=0.007;exitY=1.127;exitDx=0;exitDy=0;exitPerimeter=0;entryX=1;entryY=0.5;entryDx=0;entryDy=0;" parent="1" edge="1">
          <mxGeometry relative="1" as="geometry">
            <mxPoint x="761" y="312" as="sourcePoint" />
            <mxPoint x="520" y="423" as="targetPoint" />
          </mxGeometry>
        </mxCell>
        <mxCell id="G7a5rWq48IyiJGrq4Oza-22" value="has addressee" style="edgeLabel;resizable=0;html=1;;align=center;verticalAlign=middle;" parent="G7a5rWq48IyiJGrq4Oza-21" connectable="0" vertex="1">
          <mxGeometry relative="1" as="geometry">
            <mxPoint x="10" y="-8" as="offset" />
          </mxGeometry>
        </mxCell>
        <mxCell id="G7a5rWq48IyiJGrq4Oza-23" value="" style="endArrow=classic;html=1;rounded=0;exitX=0.512;exitY=1.159;exitDx=0;exitDy=0;exitPerimeter=0;curved=1;entryX=0.559;entryY=1.049;entryDx=0;entryDy=0;entryPerimeter=0;" parent="1" source="i-SSKv4laA4iEFBlzxF1-8" target="G7a5rWq48IyiJGrq4Oza-6" edge="1">
          <mxGeometry relative="1" as="geometry">
            <mxPoint x="829.29" y="400" as="sourcePoint" />
            <mxPoint x="150" y="540" as="targetPoint" />
            <Array as="points">
              <mxPoint x="550" y="610" />
            </Array>
          </mxGeometry>
        </mxCell>
        <mxCell id="G7a5rWq48IyiJGrq4Oza-24" value="has author" style="edgeLabel;resizable=0;html=1;;align=center;verticalAlign=middle;" parent="G7a5rWq48IyiJGrq4Oza-23" connectable="0" vertex="1">
          <mxGeometry relative="1" as="geometry">
            <mxPoint x="-88" y="-89" as="offset" />
          </mxGeometry>
        </mxCell>
        <mxCell id="G7a5rWq48IyiJGrq4Oza-25" value="" style="endArrow=classic;html=1;rounded=0;curved=0;entryX=1;entryY=0.5;entryDx=0;entryDy=0;" parent="1" target="G7a5rWq48IyiJGrq4Oza-10" edge="1">
          <mxGeometry relative="1" as="geometry">
            <mxPoint x="1137" y="310" as="sourcePoint" />
            <mxPoint x="460" y="450" as="targetPoint" />
            <Array as="points" />
          </mxGeometry>
        </mxCell>
        <mxCell id="G7a5rWq48IyiJGrq4Oza-26" value="has author" style="edgeLabel;resizable=0;html=1;;align=center;verticalAlign=middle;" parent="G7a5rWq48IyiJGrq4Oza-25" connectable="0" vertex="1">
          <mxGeometry relative="1" as="geometry">
            <mxPoint x="32" y="-10" as="offset" />
          </mxGeometry>
        </mxCell>
        <mxCell id="G7a5rWq48IyiJGrq4Oza-27" value="" style="endArrow=classic;html=1;rounded=0;exitX=0.377;exitY=1.051;exitDx=0;exitDy=0;exitPerimeter=0;curved=1;entryX=0.181;entryY=1.205;entryDx=0;entryDy=0;entryPerimeter=0;" parent="1" source="i-SSKv4laA4iEFBlzxF1-12" target="G7a5rWq48IyiJGrq4Oza-6" edge="1">
          <mxGeometry relative="1" as="geometry">
            <mxPoint x="843" y="326" as="sourcePoint" />
            <mxPoint x="110" y="463" as="targetPoint" />
            <Array as="points">
              <mxPoint x="850" y="700" />
            </Array>
          </mxGeometry>
        </mxCell>
        <mxCell id="G7a5rWq48IyiJGrq4Oza-28" value="has addressee" style="edgeLabel;resizable=0;html=1;;align=center;verticalAlign=middle;" parent="G7a5rWq48IyiJGrq4Oza-27" connectable="0" vertex="1">
          <mxGeometry relative="1" as="geometry">
            <mxPoint x="101" y="-129" as="offset" />
          </mxGeometry>
        </mxCell>
      </root>
    </mxGraphModel>
  </diagram>
</mxfile>
